HIERARCHY
ROOT Hips
{
	OFFSET 0.000000 0.000000 0.000000
	CHANNELS 6 Xposition Yposition Zposition Xrotation Yrotation Zrotation
	JOINT LeftUpLeg_virtual
	{
		OFFSET 0.000000 0.000000 0.000000
		CHANNELS 3 Xrotation Yrotation Zrotation
		JOINT LeftUpLeg
		{
			OFFSET 15.427100 -6.655098 0.678600
			CHANNELS 3 Xrotation Yrotation Zrotation
			JOINT LeftLeg
			{
				OFFSET 4.081073 -39.591068 13.024000
				CHANNELS 3 Xrotation Yrotation Zrotation
				JOINT LeftFoot
				{
					OFFSET -4.081074 -37.707932 -15.979700
					CHANNELS 3 Xrotation Yrotation Zrotation
					JOINT LeftToeBase
					{
						OFFSET 5.346399 -15.068900 20.645000
						CHANNELS 3 Xrotation Yrotation Zrotation
						JOINT LeftToe_End
						{
							OFFSET 2.754700 0.931300 11.300900
							CHANNELS 3 Xrotation Yrotation Zrotation
							End Site
							{
								OFFSET 0 0 0
							}
						}
					}
				}
			}
		}
	}
	JOINT RightUpLeg_virtual
	{
		OFFSET 0.000000 0.000000 0.000000
		CHANNELS 3 Xrotation Yrotation Zrotation
		JOINT RightUpLeg
		{
			OFFSET -15.569500 -6.655098 0.678600
			CHANNELS 3 Xrotation Yrotation Zrotation
			JOINT RightLeg
			{
				OFFSET -4.081825 -39.591045 13.023800
				CHANNELS 3 Xrotation Yrotation Zrotation
				JOINT RightFoot
				{
					OFFSET 4.081824 -37.707954 -15.979600
					CHANNELS 3 Xrotation Yrotation Zrotation
					JOINT RightToeBase
					{
						OFFSET -5.346400 -15.068900 20.645000
						CHANNELS 3 Xrotation Yrotation Zrotation
						JOINT RightToe_End
						{
							OFFSET -2.754700 0.931300 11.300900
							CHANNELS 3 Xrotation Yrotation Zrotation
							End Site
							{
								OFFSET 0 0 0
							}
						}
					}
				}
			}
		}
	}
	JOINT Spine_virtual
	{
		OFFSET 0.000000 0.000000 0.000000
		CHANNELS 3 Xrotation Yrotation Zrotation
		JOINT Spine
		{
			OFFSET -0.279200 12.230698 -2.892100
			CHANNELS 3 Xrotation Yrotation Zrotation
			JOINT Spine1
			{
				OFFSET -0.232667 10.192268 -1.242267
				CHANNELS 3 Xrotation Yrotation Zrotation
				JOINT Spine1_split
				{
					OFFSET -0.232667 10.192268 -1.242267
					CHANNELS 3 Xrotation Yrotation Zrotation
					JOINT Spine2
					{
						OFFSET -0.232667 10.192268 -1.242267
						CHANNELS 3 Xrotation Yrotation Zrotation
						JOINT Neck_virtual
						{
							OFFSET 0.000000 0.000000 0.000000
							CHANNELS 3 Xrotation Yrotation Zrotation
							JOINT Neck
							{
								OFFSET -0.418800 17.814194 8.416900
								CHANNELS 3 Xrotation Yrotation Zrotation
								JOINT Head
								{
									OFFSET 0.000000 7.031097 3.806800
									CHANNELS 3 Xrotation Yrotation Zrotation
									JOINT HeadTop_End
									{
										OFFSET 0.000000 24.646606 12.978600
										CHANNELS 3 Xrotation Yrotation Zrotation
										End Site
										{
											OFFSET 0 0 0
										}
									}
								}
							}
						}
						JOINT LeftShoulder_virtual
						{
							OFFSET 0.000000 0.000000 0.000000
							CHANNELS 3 Xrotation Yrotation Zrotation
							JOINT LeftShoulder
							{
								OFFSET 8.476499 7.247704 -3.868750
								CHANNELS 3 Xrotation Yrotation Zrotation
								JOINT LeftShoulder_split
								{
									OFFSET 8.476499 7.247704 -3.868750
									CHANNELS 3 Xrotation Yrotation Zrotation
									JOINT LeftArm
									{
										OFFSET 9.308998 -2.777710 0.208600
										CHANNELS 3 Xrotation Yrotation Zrotation
										JOINT LeftForeArm
										{
											OFFSET 29.972298 0.000000 0.000000
											CHANNELS 3 Xrotation Yrotation Zrotation
											JOINT LeftHand
											{
												OFFSET 26.026505 0.000000 0.000000
												CHANNELS 3 Xrotation Yrotation Zrotation
												End Site
												{
													OFFSET 0 0 0
												}
											}
										}
									}
								}
							}
						}
						JOINT RightShoulder_virtual
						{
							OFFSET 0.000000 0.000000 0.000000
							CHANNELS 3 Xrotation Yrotation Zrotation
							JOINT RightShoulder
							{
								OFFSET -7.570500 7.247704 -3.868750
								CHANNELS 3 Xrotation Yrotation Zrotation
								JOINT RightShoulder_split
								{
									OFFSET -7.570500 7.247704 -3.868750
									CHANNELS 3 Xrotation Yrotation Zrotation
									JOINT RightArm
									{
										OFFSET -9.308998 -2.777710 0.208500
										CHANNELS 3 Xrotation Yrotation Zrotation
										JOINT RightForeArm
										{
											OFFSET -29.972300 0.000000 0.000000
											CHANNELS 3 Xrotation Yrotation Zrotation
											JOINT RightHand
											{
												OFFSET -26.026505 0.000000 0.000000
												CHANNELS 3 Xrotation Yrotation Zrotation
												End Site
												{
													OFFSET 0 0 0
												}
											}
										}
									}
								}
							}
						}
					}
				}
			}
		}
	}
}
MOTION
Frames: 4
Frame Time: 0.03333333
1.049119 70.090530 -84.005661 0.000000 0.000000 0.000000 43.170006 -71.370095 33.262960 -58.127567 -16.764103 25.038656 44.037385 -2.724542 9.154518 6.452956 -1.081870 -18.332649 -5.033698 0.992427 2.064219 0.000000 0.000000 0.000000 43.103650 -71.514840 34.236067 -11.175979 8.055444 -35.865815 40.914961 -1.647714 -4.544927 1.292594 -29.655087 38.971543 0.553781 1.454655 -1.540294 0.000000 0.000000 0.000000 39.290332 -67.424260 29.300934 2.414267 11.242452 -3.716255 -2.613973 5.092507 0.271983 0.964097 -3.145678 1.551424 0.000000 0.000000 0.000000 -1.281544 3.126356 0.850641 10.346354 4.452588 -5.951212 3.996341 17.850512 9.369869 0.000000 0.000000 0.000000 -2.160730 3.612326 0.773365 3.097931 2.891760 -12.129933 4.640010 0.518827 1.350442 -51.525038 -30.637736 -49.472354 -4.524619 -76.971171 -2.245257 0.000000 0.000000 0.000000 -2.307399 3.243752 0.830810 -13.851986 -1.893091 -1.465541 -1.826852 -1.622242 -1.063833 -105.450068 35.419640 120.489059 -2.509655 28.113789 2.426869 0.000000 0.000000 0.000000 
2.228549 71.280441 -91.625031 0.000000 0.000000 0.000000 46.876705 -72.175435 36.715026 -56.465973 -14.807089 24.978570 38.595599 -1.132920 8.985777 9.793492 0.568924 -16.615309 -6.035435 0.855559 1.395121 0.000000 0.000000 0.000000 44.004870 -72.327557 35.408066 -18.487722 5.374339 -31.360117 46.175306 -2.894340 -1.739738 -1.661357 -27.533500 36.587165 1.811071 1.414208 -1.747482 0.000000 0.000000 0.000000 40.961140 -68.310812 30.946986 2.095839 10.207098 -3.273721 -2.649050 4.465971 0.435334 0.812313 -2.240313 1.258250 0.000000 0.000000 0.000000 -1.195803 2.481181 1.076316 10.572932 4.912215 -6.077250 3.659505 18.965637 8.657781 0.000000 0.000000 0.000000 -2.093209 3.000923 1.003872 3.128700 2.919826 -12.178238 5.639571 0.954001 1.145529 -50.411389 -30.636626 -49.467795 -4.291036 -77.764053 -2.007192 0.000000 0.000000 0.000000 -2.227973 2.580175 1.011075 -13.917449 -2.034875 -1.991611 -1.181233 -1.230963 -1.361201 -105.212254 35.463623 120.486736 -2.760509 28.205442 2.570187 0.000000 0.000000 0.000000 
3.471596 72.436211 -98.315765 0.000000 0.000000 0.000000 49.441335 -72.640462 38.980552 -57.028709 -12.431143 24.246658 36.486116 -0.147630 7.629372 12.326212 1.000173 -14.038896 -6.608398 0.745117 0.762909 0.000000 0.000000 0.000000 44.662802 -72.769997 36.080747 -24.345118 1.422261 -26.796007 49.344346 -4.102420 0.768809 -4.993863 -25.680605 33.764333 2.670992 1.342694 -1.455896 0.000000 0.000000 0.000000 42.991342 -69.064346 32.534124 1.763702 9.167788 -2.656165 -2.637244 3.677862 0.616700 0.694202 -1.155736 0.882278 0.000000 0.000000 0.000000 -1.174664 1.641689 1.315662 10.723637 5.374775 -6.212056 3.084790 20.245130 7.967318 0.000000 0.000000 0.000000 -2.039686 2.228630 1.227700 3.166185 2.948006 -12.164739 6.301667 1.737827 0.958437 -49.593573 -30.894134 -49.409124 -3.392323 -78.144392 -1.204053 0.000000 0.000000 0.000000 -2.172567 1.779669 1.204680 -14.041258 -2.176758 -2.564595 -0.693974 -1.023419 -1.811933 -105.762959 35.543123 121.051620 -3.102072 27.105122 2.676918 0.000000 0.000000 0.000000 
4.389644 73.483871 -103.598816 0.000000 0.000000 0.000000 50.202775 -72.484071 39.593196 -59.216210 -10.019106 22.879247 37.395491 -0.037050 5.543933 13.694324 0.444586 -11.551387 -6.273245 0.688806 0.292325 0.000000 0.000000 0.000000 44.360238 -72.556936 35.756938 -28.228376 -2.890371 -23.125993 50.706273 -5.331509 2.742566 -7.871271 -24.273690 31.058458 2.651924 1.219861 -0.779103 0.000000 0.000000 0.000000 44.701355 -69.618684 33.778605 1.508763 8.252617 -2.052052 -2.558407 2.931487 0.758334 0.580471 -0.157743 0.641990 0.000000 0.000000 0.000000 -1.228662 0.826046 1.475250 10.742837 5.750507 -6.342586 2.367807 21.398204 7.507020 0.000000 0.000000 0.000000 -2.003072 1.478712 1.363484 3.212048 3.065913 -12.056518 6.564179 2.809757 0.869459 -49.208573 -31.189389 -49.294264 -2.156586 -78.223424 -0.136598 0.000000 0.000000 0.000000 -2.136275 1.032464 1.332650 -14.220357 -2.414596 -3.092868 -0.324546 -1.061031 -2.166402 -107.002215 35.773942 122.298307 -3.384615 25.505053 2.668302 0.000000 0.000000 0.000000 
